<?xml version="1.0" encoding="UTF-8"?>
<svg width="32" height="32" viewBox="0 0 32 32" fill="none" xmlns="http://www.w3.org/2000/svg">
  <!-- Background Circle -->
  <circle cx="16" cy="16" r="16" fill="#1F2937"/>
  
  <!-- CS Letters -->
  <path d="M8 12C8 10.8954 8.89543 10 10 10H14C15.1046 10 16 10.8954 16 12V14C16 15.1046 15.1046 16 14 16H10C8.89543 16 8 15.1046 8 14V12Z" fill="#F97316"/>
  <path d="M16 18C16 16.8954 16.8954 16 18 16H22C23.1046 16 24 16.8954 24 18V20C24 21.1046 23.1046 22 22 22H18C16.8954 22 16 21.1046 16 20V18Z" fill="#F97316"/>
  
  <!-- Supply Line -->
  <rect x="8" y="24" width="16" height="2" rx="1" fill="#F97316"/>
</svg> 